# xmcd
#
# Track frame offsets:
#	150
#	14781
#	32765
#	49858
#	60915
#	76330
#	89398
#	100944
#	114047
#	142813
#	175611
#	202970
#	221848
#	235046
#	264206
#	289919
#	314006
#	341637
#
# Disc length: 4607 seconds
#
# Revision: 0
# Processed by: cddbd v1.5.2PL0 Copyright (c) Steve Scherf et al.
# Submitted via: EZCDAudioConverter 1.3.4.1
#
DISCID=f511fd12
DTITLE=Graham Bond Organization - Wade In The Water 4/4
DYEAR=1900
DGENRE=
TTITLE0=Soul Tango
TTITLE1=Wade In The Water [Version 5]
TTITLE2=Down In The Valley
TTITLE3=Waltz For A Pig
TTITLE4=Wade In The Water [Version 6]
TTITLE5=You've Gotta Have Love Babe [Version 1]
TTITLE6=You've Gotta Have Love Babe [Version 2]
TTITLE7=I Love You
TTITLE8=Wade In The Water [Version 7 - Live]
TTITLE9=Long Tall Shorty [Version 2 - Live]
TTITLE10=Queen Of Hearts [Live]
TTITLE11=Alcoholic Blues [Live]
TTITLE12=Green Onions [Version 2 - Live]
TTITLE13=High Heeled Sneakers [Version 3 - Live]
TTITLE14=The First Time I Met The Blues [Live]
TTITLE15=Little Girl [Version 3 - Live]
TTITLE16=Stormy Monday [Live]
TTITLE17=What 'd I Say [Version 3 - Live]
EXTD=
EXTT0=
EXTT1=
EXTT2=
EXTT3=
EXTT4=
EXTT5=
EXTT6=
EXTT7=
EXTT8=
EXTT9=
EXTT10=
EXTT11=
EXTT12=
EXTT13=
EXTT14=
EXTT15=
EXTT16=
EXTT17=
PLAYORDER=
